<svg width="36" height="37" viewBox="0 0 36 37" fill="none" xmlns="http://www.w3.org/2000/svg">
<path d="M17.7381 21.6465L31.0417 14.2556L17.7381 6.86475L4.43457 14.2556L17.7381 21.6465Z" stroke="white" stroke-width="1.18254"/>
<path d="M17.7382 21.6467L26.8438 16.5884C28.0419 19.6306 28.3819 22.9433 27.8268 26.1655C24.0775 26.5294 20.5426 28.0821 17.7382 30.597C14.9342 28.0824 11.3999 26.5297 7.65115 26.1655C7.09565 22.9433 7.43568 19.6305 8.63414 16.5884L17.7382 21.6467Z" stroke="white" stroke-width="1.18254"/>
<path d="M17.7381 21.6465L31.0417 14.2556L17.7381 6.86475L4.43457 14.2556L17.7381 21.6465ZM17.7381 21.6465L26.8437 16.5882C28.0418 19.6304 28.3818 22.9431 27.8267 26.1653C24.0774 26.5292 20.5426 28.0819 17.7381 30.5968C14.9341 28.0822 11.3999 26.5295 7.65108 26.1653C7.09558 22.9431 7.43561 19.6303 8.63406 16.5882L17.7381 21.6465ZM11.8254 30.5155V19.4292L17.7381 16.1447" stroke="white" stroke-width="2.36508" stroke-linecap="round" stroke-linejoin="round"/>
</svg>
