<svg width="70" height="70" viewBox="0 0 70 70" fill="none" xmlns="http://www.w3.org/2000/svg">
<path d="M35 0C15.7002 0 0 15.7002 0 35C0 54.2998 15.7002 70 35 70C54.2998 70 70 54.2998 70 35C70 15.7002 54.2998 0 35 0ZM52.7393 27.583L33.7807 46.541C33.212 47.1098 32.4654 47.396 31.7188 47.396C30.9721 47.396 30.2255 47.1098 29.6568 46.541L20.1778 37.062C19.037 35.9218 19.037 34.0782 20.1778 32.938C21.318 31.7973 23.161 31.7973 24.3018 32.938L31.7188 40.355L48.6153 23.459C49.7555 22.3183 51.5985 22.3183 52.7393 23.459C53.8795 24.5992 53.8795 26.4423 52.7393 27.583Z" fill="white"/>
</svg>
