<svg width="36" height="36" viewBox="0 0 36 36" fill="none" xmlns="http://www.w3.org/2000/svg">
<path d="M13.3038 17.7381H22.1729M13.3038 23.6508H22.1729M25.1292 31.0417H10.3475C9.56339 31.0417 8.81143 30.7302 8.25701 30.1758C7.70258 29.6214 7.39111 28.8694 7.39111 28.0854V7.39092C7.39111 6.60685 7.70258 5.85489 8.25701 5.30046C8.81143 4.74604 9.56339 4.43457 10.3475 4.43457H18.6045C18.9966 4.43465 19.3725 4.59044 19.6496 4.86768L27.6525 12.8705C27.9297 13.1477 28.0855 13.5236 28.0856 13.9156V28.0854C28.0856 28.8694 27.7741 29.6214 27.2197 30.1758C26.6652 30.7302 25.9133 31.0417 25.1292 31.0417Z" stroke="white" stroke-width="2.36508" stroke-linecap="round" stroke-linejoin="round"/>
</svg>
