<svg width="254" height="42" viewBox="0 0 254 42" fill="none" xmlns="http://www.w3.org/2000/svg">
<g clip-path="url(#clip0_1188_1358)">
<path fill-rule="evenodd" clip-rule="evenodd" d="M15.1372 12.1901C15.9427 12.459 16.6586 12.6383 17.4641 12.9072C18.3591 13.1761 18.2696 13.1761 18.4486 14.0724C18.6276 14.8791 18.8066 15.5961 18.8961 16.4028V16.5821V16.4028C19.7016 12.8175 19.1646 13.3553 22.655 12.2797C20.2385 12.6383 17.6431 12.6383 15.1372 12.1901ZM25.0714 15.5961L23.9974 13.445C24.0869 14.8791 24.8924 16.6717 23.192 17.0303L20.0595 18.1058C21.402 18.0162 22.655 17.6577 23.192 17.9266C23.8184 18.2851 23.4605 18.9125 23.2815 19.3607L20.507 25.7246C22.297 22.4978 23.8184 20.0778 25.9664 17.9266C26.8614 17.1199 27.9353 16.4925 29.0988 15.5961C28.1143 15.7754 27.9353 15.865 26.9509 16.0443C26.4139 16.3132 25.3399 16.2236 25.0714 15.5961ZM11.3783 11.8316C12.2733 11.9212 13.0787 12.0108 13.9737 12.0108C12.2733 11.6523 10.6623 11.2042 9.49884 10.3975C9.58833 10.6664 9.76733 10.9353 9.85683 11.2042C10.0358 11.473 10.0358 11.473 9.85683 11.7419C9.49884 12.459 9.05135 13.1761 8.69336 13.8931L10.4833 12.1005C10.8413 11.7419 10.8413 11.7419 11.3783 11.8316ZM14.9582 18.0162C15.4952 17.6577 16.7481 18.0162 18.0906 18.1955L14.9582 17.0303C13.2577 16.6717 14.0632 14.8791 14.1527 13.445L13.0787 15.5961C12.8102 16.2236 11.7363 16.3132 11.1098 16.2236C10.1253 16.0443 9.94632 15.9547 8.96185 15.7754C10.1253 16.6717 11.1993 17.2095 12.0943 18.1058C14.3317 20.1674 15.8532 22.6771 17.5536 25.9039L14.7792 19.54C14.6897 19.0022 14.2422 18.3747 14.9582 18.0162ZM28.1143 11.1145C28.2038 10.9353 28.2933 10.6664 28.4723 10.4871C27.2193 11.3834 25.6084 11.7419 23.9974 12.1005C24.8029 12.0108 25.2504 12.0108 26.0559 11.9212C26.5929 11.8316 27.0404 11.8316 27.3983 12.1901L29.2778 14.0724C28.9198 13.3553 28.5618 12.7279 28.2038 12.0108C27.8458 11.473 27.8458 11.5627 28.1143 11.1145Z" fill="white"/>
<path fill-rule="evenodd" clip-rule="evenodd" d="M18.986 0C13.0792 0 0.639035 0.71706 0.102051 8.78398C0.549538 18.9124 7.79883 31.3713 16.6591 36.4804C17.4646 36.7493 18.27 36.9286 19.0755 36.9286C19.881 36.9286 20.6865 36.7493 21.4919 36.4804C30.3522 31.3713 37.6015 18.9124 38.049 8.78398C37.4225 0.537795 25.0718 0 18.986 0ZM30.0837 16.3131C26.1458 20.7051 23.0134 24.1111 18.986 28.4135V28.5031H18.8965L7.70933 16.2235C6.81436 15.2375 6.00888 13.9827 6.90386 12.9071C7.79883 11.8315 8.42531 11.0248 9.32029 9.9492L15.3166 8.42545H22.6554L28.5622 9.9492L30.9787 12.9071C32.1421 14.2516 31.3367 14.9686 30.0837 16.3131Z" fill="white"/>
<path fill-rule="evenodd" clip-rule="evenodd" d="M171.131 8.51499C173.368 8.51499 174.979 8.78389 176.142 9.50095C176.769 9.85948 177.216 10.3076 177.485 10.9351C177.753 11.4729 177.932 12.1899 177.932 13.0862C177.932 14.3411 177.485 15.3271 176.5 16.1337C175.963 16.5819 175.337 17.0301 174.71 17.299C174.621 17.299 174.531 17.3886 174.531 17.4782C174.531 17.6575 174.71 17.6575 174.8 17.7471C175.874 18.016 176.858 18.4642 177.574 19.0916C178.648 19.9879 179.185 21.1532 179.185 22.6769C179.185 23.7525 178.917 24.6488 178.469 25.4555C178.022 26.1726 177.306 26.8896 176.5 27.3378C175.784 27.786 174.889 28.0549 173.905 28.2341C173.189 28.4134 172.384 28.4134 171.489 28.4134H164.687C163.881 28.4134 163.165 28.2341 162.718 28.2341H162.628C162.449 28.1445 162.36 27.9652 162.36 27.786C162.36 27.6067 162.539 27.4274 162.718 27.3378H163.076C163.881 27.2482 164.418 27.0689 164.687 26.8C164.955 26.4415 165.134 25.3659 165.134 23.6629L165.224 13.4448C165.224 11.7418 165.045 10.7558 164.866 10.3076C164.687 9.94911 164.239 9.76985 163.434 9.68021H163.076C162.897 9.59058 162.718 9.41132 162.718 9.23205C162.718 8.96315 162.897 8.78389 163.076 8.78389H163.165C163.523 8.69426 164.06 8.69426 164.687 8.60462H170.057C170.325 8.51499 170.683 8.51499 171.131 8.51499ZM171.131 27.1585C172.026 27.0689 172.921 26.8 173.547 26.2622C174.352 25.5452 174.8 24.3799 174.8 22.9458C174.8 21.4221 174.352 20.4361 173.368 19.6294C172.831 19.1812 172.115 18.9124 171.31 18.7331C170.862 18.6435 170.236 18.5538 169.878 18.7331C169.52 18.8227 169.251 19.1812 169.162 19.5398C169.072 19.719 169.162 19.9879 169.162 20.1672V23.8421C169.162 25.0074 169.251 25.814 169.341 26.1726C169.43 26.5311 169.609 26.8896 169.967 26.9793C170.146 27.1585 170.683 27.1585 171.131 27.1585ZM170.862 17.2093C171.578 17.0301 172.205 16.8508 172.652 16.4026C173.368 15.7752 173.726 14.7893 173.726 13.4448C173.726 12.1003 173.368 11.204 172.652 10.5765C172.205 10.218 171.578 9.94911 170.952 9.76984C170.504 9.68021 170.146 9.68021 169.699 9.68021C168.983 9.76985 168.983 10.0387 168.983 10.7558V15.596C168.983 15.8649 168.983 16.1337 169.072 16.313C169.162 16.6715 169.52 16.9404 169.878 17.1197C170.146 17.299 170.594 17.2093 170.862 17.2093ZM76.5318 15.5063V15.1478C76.5318 15.0582 76.6213 14.9685 76.7108 14.9685C76.8003 14.9685 76.9793 14.9685 77.0688 14.8789H77.4267C78.2322 14.7893 78.8587 14.6996 79.3062 14.61C79.4852 14.61 79.6642 14.5204 79.8432 14.5204C80.0222 14.5204 80.1117 14.61 80.2012 14.7893V25.5452C80.2012 26.3518 80.3802 27.2482 81.3646 27.3378H81.4541C81.7226 27.4274 81.9016 27.6067 81.9016 27.8756C81.9016 28.1445 81.6331 28.4134 81.3646 28.4134H78.3217C77.8742 28.4134 77.4267 28.2341 77.0688 27.9652C76.8003 27.6963 76.6213 27.3378 76.3528 27.2482C76.0843 27.1585 75.6368 27.2482 75.0103 27.6963C74.4733 28.0549 73.7574 28.3238 73.3099 28.503C73.0414 28.5927 72.5939 28.6823 72.0569 28.6823C70.8039 28.6823 69.8195 28.3238 69.1035 27.5171C68.3875 26.8 68.119 25.8141 68.119 24.5592V17.5679C68.119 17.0301 68.0295 16.6715 67.94 16.4923C67.8505 16.313 67.582 16.2234 67.1345 16.1337C66.9555 16.1337 66.7766 16.1337 66.5976 16.0441C66.4186 15.9545 66.3291 15.7752 66.3291 15.596C66.3291 15.4167 66.4186 15.2374 66.5976 15.1478C66.6871 15.0582 66.866 15.1478 67.045 15.0582C67.6715 15.0582 68.298 14.9685 69.014 14.8789C69.8195 14.7893 70.4459 14.6996 70.8934 14.61C71.0724 14.61 71.2514 14.5204 71.4304 14.5204C71.6094 14.5204 71.6989 14.61 71.7884 14.7893V23.7525C71.7884 24.6488 71.9674 25.2763 72.3254 25.6348C72.6834 26.0829 73.2204 26.2622 73.8468 26.2622C74.3838 26.2622 74.9208 26.0829 75.4578 25.814C76.1738 25.4555 76.4423 24.7385 76.4423 24.2007C76.5318 21.3324 76.5318 18.4642 76.5318 15.5063ZM134.526 24.111V21.7806C134.526 21.4221 134.258 21.1532 133.9 21.1532C133.81 21.1532 133.721 21.1532 133.631 21.2428L132.468 21.8702C131.394 22.4976 130.767 23.4836 130.857 24.5592C130.857 25.5452 131.662 26.4415 132.736 26.4415C133.542 26.4415 134.258 25.9037 134.437 25.1866C134.526 24.8281 134.526 24.4696 134.526 24.111ZM138.196 18.1953V25.097C138.196 25.7244 138.285 26.1726 138.464 26.4415C138.553 26.7104 138.732 26.8 138.911 26.8896C139.269 26.9793 139.448 27.2482 139.448 27.5171C139.448 27.786 139.269 27.9652 139.09 28.0549C138.553 28.4134 137.838 28.5927 137.122 28.5927C136.495 28.5927 135.958 28.4134 135.511 28.1445C135.063 27.786 134.795 27.2482 134.079 27.2482C133.452 27.2482 133.094 27.6963 132.647 28.0549C132.199 28.4134 131.752 28.5927 130.946 28.5927C129.783 28.5927 128.888 28.2341 128.172 27.4274C127.456 26.6207 127.098 25.814 127.098 24.8281C127.098 23.3043 127.903 22.2288 129.425 21.6013L132.11 20.5257C132.736 20.2568 133.273 19.9879 133.721 19.8087C134.079 19.6294 134.437 19.2709 134.437 18.7331V18.3746C134.437 16.9404 133.989 15.7752 132.826 15.7752C130.678 15.6856 130.499 17.5679 130.23 18.9124C130.141 19.4501 129.693 19.719 129.246 19.719C128.888 19.719 128.53 19.6294 128.172 19.3605C127.724 19.002 127.724 18.6435 127.724 18.2849C127.724 16.1337 130.141 14.4307 132.915 14.4307C136.137 14.4307 138.196 15.1478 138.196 18.1953ZM145.266 22.3184V27.9652C145.266 28.1445 145.087 28.3238 144.908 28.3238H141.954C141.775 28.3238 141.596 28.1445 141.596 27.9652V18.1953C141.596 17.5679 141.507 17.1197 141.417 16.8508C141.328 16.6715 141.149 16.5819 140.791 16.5819C140.522 16.5819 140.254 16.5819 139.985 16.4923C139.806 16.4026 139.717 16.2234 139.717 16.0441C139.717 15.8649 139.806 15.6856 139.985 15.596C140.075 15.596 140.164 15.5063 140.254 15.5063C140.97 15.4167 141.686 15.2374 142.402 15.1478C142.849 15.0582 143.744 14.9685 144.818 14.6996C145.087 14.61 145.355 14.6996 145.355 14.9685C145.355 15.9545 145.892 16.2234 147.145 15.4167C147.682 15.0582 148.13 14.8789 148.577 14.7893C149.025 14.61 149.472 14.61 149.92 14.61C151.173 14.61 152.157 14.9685 152.873 15.7752C153.589 16.4923 153.947 17.4782 153.947 18.7331V25.5452C153.947 26.4415 154.037 27.5171 155.111 27.6067H155.2C155.469 27.6067 155.648 27.8756 155.648 28.0549C155.648 28.2341 155.379 28.5927 155.111 28.5927H152.068C151.083 28.5927 150.188 27.786 150.188 26.7104V22.9458V19.5398C150.188 18.6435 150.009 18.016 149.651 17.6575C149.293 17.2093 148.756 17.0301 148.13 17.0301C147.593 17.0301 147.056 17.2093 146.519 17.4782C145.803 17.8368 145.534 18.5538 145.534 19.0916C145.266 19.9879 145.266 21.1532 145.266 22.3184ZM122.533 8.24609C123.16 8.24609 123.697 8.42536 124.144 8.87352C124.592 9.32168 124.771 9.85948 124.771 10.4869C124.771 11.1143 124.592 11.6521 124.144 12.1003C123.697 12.5485 123.16 12.7277 122.533 12.7277C121.907 12.7277 121.459 12.5485 120.923 12.1003C120.475 11.6521 120.207 11.1143 120.207 10.4869C120.207 9.85948 120.386 9.32168 120.833 8.87352C121.459 8.42536 121.996 8.24609 122.533 8.24609ZM122.981 28.4134H122.891C121.907 28.4134 121.012 27.6067 121.012 26.5311V18.5538C121.012 17.7471 121.101 16.8508 120.207 16.6715C120.028 16.5819 119.67 16.5819 119.491 16.4923C119.312 16.4026 119.222 16.2234 119.222 16.0441C119.222 15.8649 119.312 15.6856 119.491 15.596C119.58 15.5063 119.849 15.5063 119.938 15.5063C120.564 15.4167 121.191 15.3271 121.728 15.1478L124.144 14.61C124.413 14.5204 124.681 14.61 124.681 14.8789V25.3659C124.681 26.2622 124.771 27.3378 125.845 27.4274H125.934C126.203 27.4274 126.382 27.6963 126.382 27.8756C126.382 28.0549 126.113 28.4134 125.845 28.4134H122.981ZM117.432 17.4782C117.432 17.7471 117.343 18.1057 116.985 18.1057C116.627 18.1953 116.358 17.9264 116.269 17.7471C115.821 16.5819 114.926 15.6856 113.584 15.6856C113.136 15.6856 112.331 15.8649 111.973 16.2234C111.615 16.5819 111.436 16.9404 111.436 17.4782C111.436 17.9264 111.615 18.2849 112.062 18.7331C113.405 19.9879 115.732 19.9879 117.164 21.3324C117.969 22.0495 118.327 23.0354 118.327 24.2007C118.327 25.6348 117.701 26.8 116.448 27.6067C115.374 28.3238 114.121 28.6823 112.599 28.6823C111.794 28.6823 110.988 28.5927 110.272 28.3238C109.646 28.1445 109.109 27.8756 108.751 27.5171C108.661 27.4274 108.661 27.3378 108.572 27.2482C108.482 26.9793 108.393 26.4415 108.303 25.7244C108.214 25.3659 108.214 24.9177 108.214 24.6488V24.4696C108.214 24.2007 108.482 23.9318 108.751 23.9318C109.019 23.9318 109.198 24.111 109.288 24.2903C110.004 26.2622 110.988 27.3378 112.957 27.4274C113.494 27.4274 114.031 27.2482 114.389 26.8896C114.747 26.5311 114.926 26.0829 114.926 25.4555C114.926 24.9177 114.747 24.4696 114.389 24.111C114.031 23.6629 113.405 23.3043 112.599 23.0354C110.72 22.3184 108.393 20.7946 108.303 18.5538C108.303 16.313 110.093 15.1478 112.062 14.6996C113.584 14.3411 115.105 14.61 116.537 15.1478H116.627C116.716 15.1478 116.716 15.2374 116.806 15.3271C116.806 15.4167 116.895 15.4167 116.895 15.5063C116.985 15.7752 117.074 16.1337 117.164 16.5819C117.343 16.9404 117.343 17.0301 117.432 17.4782ZM101.77 24.111V21.7806C101.77 21.4221 101.502 21.1532 101.144 21.1532C101.054 21.1532 100.965 21.1532 100.875 21.2428L99.7116 21.8702C98.6376 22.4976 98.0112 23.4836 98.1007 24.5592C98.1007 25.5452 98.9061 26.4415 99.9801 26.4415C100.786 26.4415 101.502 25.9037 101.681 25.1866C101.77 24.8281 101.77 24.4696 101.77 24.111ZM105.35 18.1953V25.097C105.35 25.7244 105.439 26.1726 105.618 26.4415C105.708 26.7104 105.887 26.8 106.066 26.8896C106.424 26.9793 106.603 27.2482 106.603 27.5171C106.603 27.786 106.513 27.9652 106.245 28.0549C105.708 28.4134 104.992 28.5927 104.276 28.5927C103.649 28.5927 103.113 28.4134 102.665 28.1445C102.218 27.786 101.949 27.2482 101.233 27.2482C100.607 27.2482 100.249 27.6963 99.8011 28.0549C99.3536 28.4134 98.9061 28.5927 98.1007 28.5927C96.9372 28.5927 96.0422 28.2341 95.3262 27.4274C94.6103 26.6207 94.2523 25.814 94.2523 24.8281C94.2523 23.3043 95.0577 22.2288 96.5792 21.6013L99.2641 20.5257C99.8906 20.2568 100.428 19.9879 100.875 19.8087C101.233 19.6294 101.591 19.2709 101.591 18.7331V18.3746C101.591 16.9404 101.144 15.7752 99.9801 15.7752C97.8322 15.6856 97.6532 17.5679 97.3847 18.9124C97.2952 19.4501 96.8477 19.719 96.4002 19.719C96.0422 19.719 95.6842 19.6294 95.3262 19.3605C94.8787 19.002 94.8787 18.6435 94.8787 18.2849C94.8787 16.1337 97.2952 14.4307 100.07 14.4307C103.381 14.4307 105.35 15.1478 105.35 18.1953ZM86.108 28.4134H86.0185C85.034 28.4134 84.1391 27.6067 84.1391 26.5311V18.5538C84.1391 17.7471 84.2285 16.8508 83.3336 16.6715C83.1546 16.5819 82.7966 16.5819 82.6176 16.4923C82.4386 16.4026 82.3491 16.2234 82.3491 16.0441C82.3491 15.8649 82.4386 15.6856 82.6176 15.596C82.7071 15.5063 82.8861 15.5063 83.0651 15.5063C83.6916 15.4167 84.318 15.3271 84.855 15.1478L87.2715 14.61C87.54 14.5204 87.8084 14.61 87.8084 14.8789V15.8649C87.8084 16.313 88.1664 16.4026 88.5244 16.0441C88.7034 15.9545 88.8824 15.6856 88.9719 15.596C89.4194 15.2374 89.8669 14.9685 90.3144 14.6996C90.5829 14.5204 90.9409 14.4307 91.2989 14.4307C91.9253 14.4307 92.3728 14.61 92.7308 14.9685C93.0888 15.3271 93.3573 15.7752 93.3573 16.313C93.3573 16.8508 93.1783 17.299 92.9098 17.6575C92.6413 18.1057 92.2833 18.3746 91.9253 18.4642C91.7463 18.5538 91.6568 18.5538 91.5673 18.5538C91.3883 18.5538 91.2094 18.4642 91.0304 18.3746C90.4934 17.9264 89.9564 17.7471 89.5089 17.7471C89.1509 17.7471 88.8824 17.8368 88.6139 18.016C87.8979 18.5538 87.8979 19.2709 87.8979 20.0776V25.2763C87.8979 26.1726 87.9874 27.2482 89.0614 27.3378H89.1509C89.4194 27.4274 89.5984 27.6067 89.5984 27.8756C89.5984 28.1445 89.3299 28.4134 89.0614 28.4134H86.108ZM57.6478 8.51499H61.9437C62.8387 8.51499 63.5546 8.60462 64.0916 8.69426C64.2706 8.69426 64.4496 8.87352 64.4496 9.05279L64.6286 12.0107C64.6286 12.1899 64.6286 12.2796 64.5391 12.4588C64.4496 12.7277 64.1811 12.8173 63.9126 12.8173C63.6441 12.8173 63.4651 12.6381 63.2861 12.4588C63.2861 12.3692 63.1967 12.2796 63.1967 12.2796C62.9282 11.5625 62.6597 11.0247 62.3912 10.6662C61.9437 10.218 60.8697 9.68021 59.0798 9.68021H57.9163C57.2898 9.68021 56.9318 9.68021 56.8423 9.85948C56.7528 9.94911 56.6633 10.3076 56.6633 10.8454V15.7752C56.6633 16.0441 56.6633 16.313 56.7528 16.4923C56.8423 16.8508 57.2003 17.1197 57.5583 17.299C57.7373 17.3886 58.0058 17.299 58.1848 17.299H58.9903C60.3327 17.299 61.1382 17.2093 61.4067 16.9404C61.5857 16.7612 61.8542 16.2234 61.9437 15.4167C61.9437 15.3271 61.9437 15.2374 62.0332 15.1478C62.1227 14.8789 62.3017 14.7893 62.5702 14.7893C62.8387 14.7893 63.0177 14.9685 63.1072 15.1478V21.0635C63.0177 21.2428 62.8387 21.4221 62.5702 21.4221C62.3017 21.4221 62.1227 21.2428 62.0332 21.0635C61.9437 20.9739 61.9437 20.7946 61.9437 20.705C61.7647 19.8983 61.5857 19.3605 61.4067 19.1812C61.1382 18.9124 60.3327 18.8227 58.9903 18.8227H58.1848C58.0058 18.8227 57.7373 18.8227 57.5583 18.9124C57.2003 19.002 56.9318 19.3605 56.8423 19.719C56.7528 19.8983 56.8423 20.1672 56.8423 20.3465V23.8421C56.8423 25.0074 56.9318 25.814 57.0213 26.1726C57.1108 26.5311 57.2898 26.8896 57.6478 26.9793C57.9163 27.0689 58.1848 27.1585 58.5428 27.1585C58.9008 27.1585 59.4378 27.2482 60.2432 27.2482C62.6597 27.1585 63.7336 26.6207 64.7181 24.111C64.8076 23.8421 64.8971 23.4836 65.4341 23.4836C65.7921 23.4836 66.0606 23.7525 66.0606 24.0214V24.5592L65.7921 25.9037C65.6131 26.8896 65.4341 27.5171 65.3446 27.9652C65.2551 28.1445 65.1656 28.2341 64.9866 28.2341C64.5391 28.3238 63.9126 28.4134 63.1072 28.4134C61.6752 28.4134 59.8852 28.503 57.9163 28.503H52.3675C51.562 28.503 50.846 28.4134 50.3985 28.3238H50.309C50.13 28.2341 50.0405 28.0549 50.0405 27.8756C50.0405 27.6963 50.2195 27.5171 50.3985 27.4274H50.7565C51.562 27.3378 52.099 27.1585 52.3675 26.8896C52.636 26.5311 52.8149 25.4555 52.8149 23.7525L52.9044 13.5344C52.9044 11.8314 52.7254 10.8454 52.5465 10.3973C52.3675 10.0387 51.8305 9.85948 51.1145 9.76984H50.7565C50.5775 9.68021 50.3985 9.50095 50.3985 9.32168C50.3985 9.14242 50.5775 8.87352 50.7565 8.87352H50.846C51.204 8.78389 51.741 8.78389 52.3675 8.69426C53.6204 8.51499 55.5894 8.51499 57.6478 8.51499ZM187.777 24.2903V21.9599C187.777 21.6013 187.509 21.3324 187.151 21.3324C187.061 21.3324 186.972 21.3324 186.882 21.4221L185.719 22.0495C184.645 22.6769 184.018 23.6629 184.108 24.7385C184.108 25.7244 184.913 26.6207 185.987 26.6207C186.793 26.6207 187.419 26.0829 187.688 25.4555C187.867 25.0074 187.777 24.6488 187.777 24.2903ZM191.446 18.3746V25.2763C191.446 25.9037 191.536 26.3518 191.715 26.6207C191.804 26.8896 191.983 26.9793 192.162 27.0689C192.52 27.1585 192.699 27.4274 192.699 27.6963C192.699 27.9652 192.52 28.1445 192.341 28.2341C191.804 28.5927 191.089 28.7719 190.373 28.7719C189.746 28.7719 189.209 28.5927 188.762 28.3238C188.314 27.9652 188.046 27.4274 187.33 27.4274C186.703 27.4274 186.345 27.8756 185.898 28.2341C185.45 28.5927 185.003 28.7719 184.197 28.7719C183.034 28.7719 182.139 28.4134 181.423 27.6067C180.707 26.8 180.349 25.9037 180.349 25.0074C180.349 23.4836 181.154 22.408 182.676 21.7806L185.361 20.705C185.987 20.4361 186.524 20.1672 186.972 19.9879C187.33 19.8087 187.688 19.4501 187.688 18.9124V18.4642C187.688 17.0301 187.24 15.8649 186.077 15.8649C183.929 15.7752 183.75 17.6575 183.481 19.0916C183.392 19.6294 182.944 19.8983 182.497 19.8983C182.139 19.8983 181.781 19.719 181.423 19.5398C180.975 19.1812 180.975 18.8227 180.975 18.4642C180.975 16.313 183.392 14.61 186.166 14.61C189.388 14.61 191.446 15.4167 191.446 18.3746ZM198.517 22.408V28.0549C198.517 28.2341 198.338 28.4134 198.159 28.4134H195.205C195.026 28.4134 194.847 28.2341 194.847 28.0549V18.2849C194.847 17.6575 194.758 17.2093 194.668 16.9404C194.579 16.7612 194.4 16.6715 194.042 16.6715C193.773 16.6715 193.505 16.6715 193.236 16.5819C193.057 16.4923 192.968 16.313 192.968 16.1337C192.968 15.9545 193.057 15.7752 193.236 15.6856C193.326 15.6856 193.415 15.596 193.505 15.596C194.221 15.5063 194.937 15.3271 195.653 15.2374C196.1 15.1478 196.995 15.0582 198.069 14.7893C198.338 14.6996 198.606 14.7893 198.606 15.0582C198.606 16.0441 199.143 16.313 200.396 15.5063C200.933 15.1478 201.381 14.9685 201.828 14.8789C202.276 14.6996 202.634 14.6996 203.171 14.6996C204.424 14.6996 205.408 15.0582 206.124 15.8649C206.84 16.5819 207.198 17.5679 207.198 18.8227V25.6348C207.198 26.5311 207.288 27.6067 208.361 27.6963H208.451C208.719 27.786 208.898 27.9652 208.898 28.2341C208.898 28.503 208.719 28.7719 208.361 28.7719H205.319C204.334 28.7719 203.439 27.9652 203.439 26.8896V23.1251V19.719C203.439 18.8227 203.26 18.1953 202.902 17.8368C202.544 17.3886 202.007 17.2093 201.381 17.2093C200.844 17.2093 200.307 17.3886 199.77 17.6575C199.054 18.016 198.785 18.7331 198.785 19.2709C198.517 20.1672 198.517 21.2428 198.517 22.408ZM210.151 12.3692C210.151 11.5625 210.241 10.6662 209.346 10.4869C209.167 10.3973 208.809 10.3973 208.63 10.3076C208.451 10.218 208.361 10.0387 208.361 9.85948C208.361 9.68021 208.451 9.50095 208.63 9.41132C208.719 9.32168 208.898 9.32168 209.077 9.32168C209.704 9.23205 210.33 9.14242 210.867 9.05279C211.673 8.87352 212.568 8.69426 213.284 8.51499C213.552 8.42536 213.821 8.51499 213.821 8.78389C213.91 12.5485 213.821 16.5819 213.821 20.3465C213.821 20.7946 214 20.8843 214.179 20.9739C214.358 21.0635 214.626 20.9739 214.984 20.5257C215.879 19.3605 216.774 18.1057 217.669 16.9404C217.938 16.5819 218.296 15.8649 217.49 15.7752C216.864 15.6856 216.953 14.6996 217.58 14.6996H221.16C221.607 14.6996 221.876 14.9685 221.876 15.2374C221.876 16.0441 221.07 15.5063 219.728 17.0301L217.669 19.1812C217.043 19.8087 216.774 20.1672 217.401 20.9739C218.296 22.2288 220.086 24.5592 220.444 25.097C221.339 26.1726 222.234 27.4274 223.218 27.4274H223.308C223.576 27.4274 223.666 27.6963 223.666 27.8756C223.666 28.1445 223.487 28.4134 223.218 28.4134H219.549C218.654 28.4134 218.296 27.8756 217.848 27.2482L214.626 22.5873C214.358 22.1391 213.821 22.2288 213.821 22.8562V28.0549C213.821 28.2341 213.642 28.4134 213.463 28.4134H210.509C210.33 28.4134 210.151 28.2341 210.151 28.0549V12.3692Z" fill="white"/>
</g>
<defs>
<clipPath id="clip0_1188_1358">
<rect width="253.576" height="41.8524" fill="white"/>
</clipPath>
</defs>
</svg>
