<svg width="243" height="46" viewBox="0 0 243 46" fill="none" xmlns="http://www.w3.org/2000/svg">
<path d="M165.812 0.311035H165.088V36.5146H165.812V0.311035Z" fill="#D7D8D8"/>
<path d="M190.055 14.6603C190.055 12.4303 188.729 11.024 185.956 11.024H181.757V25.5894H186.479C189.512 25.5894 190.758 24.1429 190.758 21.4307C190.758 19.5623 189.894 18.3167 188.005 17.9149V17.8747C189.452 17.4327 190.055 16.4282 190.055 14.6603ZM183.385 18.6783H186.398C188.267 18.6783 189.13 19.502 189.13 21.3503C189.13 23.4799 188.206 24.2232 186.398 24.2232H183.385V18.6783ZM183.385 12.4303H185.996C187.784 12.4303 188.508 13.1937 188.508 14.8009C188.508 16.4684 187.825 17.3524 185.996 17.3524H183.385V12.4303ZM193.794 18.0153C194.376 17.0309 195.14 16.4483 196.124 16.4483C197.37 16.4483 197.993 17.2117 197.993 18.7185V19.8235H197.089C193.673 19.8235 192.568 21.2097 192.568 23.0781C192.568 24.7054 193.613 25.7501 195.401 25.7501C196.446 25.7501 197.41 25.3885 198.153 24.6853C198.395 25.2679 198.957 25.7099 199.821 25.7099C200.102 25.7099 200.363 25.6496 200.584 25.5894V24.7054H200.303C199.741 24.7054 199.459 24.3639 199.459 23.8013V18.7185C199.459 16.7497 198.535 15.263 196.305 15.263C194.718 15.263 193.653 16.147 192.89 17.4327L193.794 18.0153ZM195.682 24.6652C194.618 24.6652 193.995 24.163 193.995 22.9977C193.995 21.7119 194.698 20.8882 197.089 20.8882H197.993V23.6004C197.39 24.3036 196.687 24.6652 195.682 24.6652ZM203.759 17.7944C204.241 17.1113 205.125 16.5287 206.27 16.5287C207.757 16.5287 208.48 17.4327 208.48 18.9998V25.5894H209.947V18.9797C209.947 16.7497 208.822 15.2831 206.652 15.2831C205.426 15.2831 204.382 15.7452 203.678 16.5889H203.638L203.598 15.4639H202.292V25.5894H203.759V17.7944ZM212.614 10.5418V25.5894H214.081V22.4151L215.628 20.7677L218.943 25.5894H220.691L216.612 19.8034L220.249 15.4639H218.561L214.081 20.8682V10.5418H212.614Z" fill="white"/>
<path d="M55.9933 7.31592V9.714H61.1029V12.4015H55.9933V16.8876H52.6572V4.62842H61.5463V7.31592H55.9933Z" fill="white"/>
<path d="M70.7739 13.6419H68.1769V16.8876H64.8408V4.62842H71.2807C72.3153 4.64909 73.1387 4.75246 73.751 4.95919C74.3633 5.16592 74.8278 5.51736 75.1234 6.05486C75.4402 6.59236 75.588 7.35726 75.588 8.34957C75.588 9.19717 75.5457 9.83803 75.4824 10.2722C75.3979 10.7063 75.2079 11.0784 74.8701 11.3885C74.5322 11.6986 73.9833 11.9467 73.2443 12.1327V12.2568C73.941 12.2775 74.49 12.4842 74.8912 12.8563C75.2924 13.2284 75.4824 13.7452 75.4824 14.4481V16.8876H72.1252V15.1717C72.1252 14.1587 71.6818 13.6419 70.7739 13.6419ZM68.1769 10.789H70.7739C71.2173 10.789 71.534 10.727 71.7241 10.6236C71.9141 10.5202 72.0408 10.3342 72.083 10.0861C72.1252 9.83804 72.1463 9.44525 72.1463 8.88707C72.1463 8.3289 72.0619 7.95678 71.8719 7.77073C71.6818 7.58467 71.3229 7.4813 70.7739 7.4813H68.1769V10.789Z" fill="white"/>
<path d="M82.4908 7.31592V9.54861H87.8328V11.8226H82.4908V14.2001H88.3184V16.8876H79.1548V4.62842H88.1917V7.31592H82.4908Z" fill="white"/>
<path d="M95.3693 7.31592V9.54861H100.711V11.8226H95.3693V14.2001H101.176V16.8876H92.0332V4.62842H101.07V7.31592H95.3693Z" fill="white"/>
<path d="M104.809 16.8876V4.62842H111.143C112.326 4.62842 113.297 4.7938 114.015 5.1039C114.754 5.414 115.303 5.91015 115.641 6.61303C116 7.31592 116.169 8.22553 116.169 9.38323V11.9467C116.169 13.1044 116.021 14.0347 115.746 14.7582C115.472 15.4818 114.986 16.0193 114.31 16.3707C113.635 16.7222 112.727 16.9082 111.587 16.9082H104.809V16.8876ZM108.145 7.4813V14.0553H111.059C112.178 14.0553 112.748 13.3525 112.748 11.9674V9.4039C112.748 8.88707 112.685 8.49428 112.579 8.20486C112.474 7.93611 112.284 7.75005 112.051 7.64669C111.819 7.54332 111.481 7.50198 111.059 7.50198H108.145V7.4813Z" fill="white"/>
<path d="M125.181 16.9888C124.252 16.9888 123.45 16.9268 122.774 16.8028C122.099 16.6787 121.486 16.4513 120.98 16.1205C120.473 15.7898 120.093 15.335 119.797 14.7355C119.523 14.1359 119.375 13.3917 119.375 12.4821V9.02968C119.375 8.12007 119.523 7.35516 119.797 6.75564C120.072 6.15612 120.473 5.70132 120.98 5.37055C121.486 5.03978 122.078 4.83305 122.753 4.70901C123.429 4.58497 124.252 4.52295 125.16 4.52295C126.089 4.52295 126.892 4.58497 127.588 4.70901C128.285 4.83305 128.876 5.06045 129.383 5.37055C129.89 5.68064 130.27 6.15612 130.544 6.75564C130.819 7.35516 130.967 8.09939 130.967 9.02968V12.5028C130.967 13.4124 130.84 14.1773 130.544 14.7561C130.27 15.3556 129.869 15.8104 129.383 16.1412C128.876 16.472 128.285 16.6787 127.588 16.8234C126.913 16.9268 126.11 16.9888 125.181 16.9888ZM125.181 14.1359C125.815 14.1359 126.3 14.0946 126.617 14.0119C126.934 13.9292 127.166 13.7431 127.314 13.4537C127.462 13.1643 127.525 12.7302 127.525 12.1306V9.38112C127.525 8.92631 127.483 8.5542 127.398 8.30612C127.314 8.03737 127.187 7.85132 126.997 7.7066C126.828 7.58257 126.596 7.4792 126.3 7.45853C126.026 7.41718 125.625 7.39651 125.16 7.39651C124.527 7.39651 124.062 7.43785 123.746 7.52055C123.429 7.60324 123.197 7.7893 123.049 8.05805C122.901 8.34747 122.817 8.7816 122.796 9.38112V12.1306C122.817 12.7302 122.901 13.185 123.049 13.4537C123.197 13.7431 123.429 13.9292 123.746 14.0119C124.083 14.0946 124.548 14.1359 125.181 14.1359Z" fill="white"/>
<path d="M137.472 7.4813L137.789 16.8876H134.453V4.62842H139.753L142.139 12.3188H142.265L144.525 4.62842H149.951V16.8876H146.615L146.953 7.4813H146.826L143.659 16.8876H140.766L137.557 7.4813H137.472Z" fill="white"/>
<path d="M56.8358 23.5833V24.6376H54.5554V32.1626H53.2252V24.6376H51.895V23.5833H53.2252V22.3016C53.2252 21.3506 53.4364 20.6891 53.8798 20.317C54.3232 19.9448 55.041 19.7588 56.0334 19.7588L56.8569 19.8001V20.8545C56.6246 20.8338 56.3924 20.8131 56.139 20.8131H55.9067C55.4 20.8131 55.0622 20.9165 54.8721 21.1232C54.6821 21.3299 54.5765 21.7021 54.5765 22.1982V23.5626H56.8358V23.5833Z" fill="white"/>
<path d="M60.4044 21.3096H59.0742V19.9038H60.4044V21.3096ZM60.4044 32.163H59.0742V23.6043H60.4044V32.163Z" fill="white"/>
<path d="M64.7345 26.9119V32.1628H63.4043V23.6042H64.65V24.6999C64.9667 24.2244 65.389 23.8729 65.938 23.6869C66.3814 23.5422 66.9304 23.4595 67.6482 23.4595C68.8306 23.4595 69.6752 23.6662 70.1397 24.1003C70.6042 24.5345 70.8576 25.32 70.8576 26.4984V32.1628H69.5274V26.6225C69.5274 25.7542 69.4007 25.196 69.1262 24.9273C68.8518 24.6585 68.2817 24.5138 67.3949 24.5138C66.5081 24.5138 65.8535 24.6999 65.4101 25.072C64.9456 25.4441 64.7345 26.0643 64.7345 26.9119Z" fill="white"/>
<path d="M79.7639 27.9867V26.767C79.7639 25.7333 79.6161 25.0718 79.3205 24.8237C79.0249 24.555 78.3281 24.4309 77.209 24.4309C76.4067 24.4309 75.8577 24.5136 75.5832 24.679C75.2876 24.8444 75.1398 25.1958 75.1398 25.7333V25.9814H73.8096C73.8096 24.9064 74.1264 24.2035 74.802 23.8521C75.2665 23.604 76.09 23.48 77.2935 23.48C78.6448 23.48 79.5949 23.6454 80.1228 23.9761C80.7984 24.4103 81.1152 25.2372 81.1152 26.4982V32.1833H79.8694L79.9116 31.1083C79.6161 31.6458 79.2782 31.9766 78.9193 32.1213C78.5603 32.266 77.9058 32.3487 76.9768 32.3487C75.7944 32.3487 74.9498 32.1833 74.4431 31.8526C73.8308 31.4598 73.5352 30.6949 73.5352 29.5992C73.5352 28.5656 73.8308 27.8627 74.4431 27.4699C74.9287 27.1598 75.7521 26.9944 76.8712 26.9944C77.8636 26.9944 78.5603 27.0564 78.9404 27.2011C79.2782 27.3458 79.5738 27.5939 79.7639 27.9867ZM79.7639 29.6612C79.7639 28.917 79.5738 28.4622 79.2149 28.2555C78.8559 28.0694 78.0536 27.966 76.8501 27.966C76.1322 27.966 75.6255 28.0487 75.351 28.2348C75.0131 28.4622 74.8442 28.855 74.8442 29.4338C74.8442 30.1574 74.992 30.6535 75.2876 30.9016C75.5832 31.1704 76.1111 31.2944 76.8712 31.2944C77.9058 31.2944 78.6026 31.2324 78.9404 31.0877C79.4894 30.8809 79.7639 30.4055 79.7639 29.6612Z" fill="white"/>
<path d="M85.4259 26.9119V32.1628H84.0957V23.6042H85.3414V24.6999C85.6582 24.2244 86.0804 23.8729 86.6294 23.6869C87.0728 23.5422 87.6218 23.4595 88.3397 23.4595C89.5221 23.4595 90.3666 23.6662 90.8312 24.1003C91.2957 24.5345 91.549 25.32 91.549 26.4984V32.1628H90.2188V26.6225C90.2188 25.7542 90.0922 25.196 89.8177 24.9273C89.5432 24.6585 88.9731 24.5138 88.0863 24.5138C87.1995 24.5138 86.545 24.6999 86.1016 25.072C85.6582 25.4441 85.4259 26.0643 85.4259 26.9119Z" fill="white"/>
<path d="M100.562 29.0619H101.85C101.85 30.3436 101.555 31.2326 100.963 31.6874C100.436 32.1215 99.4644 32.3282 98.0708 32.3282C96.6139 32.3282 95.6216 32.0181 95.0937 31.3979C94.5659 30.7777 94.3125 29.6201 94.3125 27.9042C94.3125 26.209 94.5659 25.0306 95.0937 24.4104C95.6216 23.7902 96.5928 23.4595 98.0286 23.4595C99.2321 23.4595 100.119 23.6249 100.689 23.9763C101.365 24.3898 101.681 25.1133 101.681 26.1263V26.3951H100.414C100.414 25.6715 100.267 25.196 99.9922 24.9479C99.6755 24.6585 98.9998 24.5138 98.0075 24.5138C97.0362 24.5138 96.3817 24.7205 96.0861 25.134C95.7905 25.5475 95.6427 26.4571 95.6427 27.8628C95.6427 29.2479 95.8116 30.1576 96.1283 30.5917C96.445 31.0258 97.0996 31.2532 98.0708 31.2532C99.1054 31.2532 99.7811 31.1085 100.098 30.8191C100.393 30.5503 100.562 29.9508 100.562 29.0619Z" fill="white"/>
<path d="M111.965 28.1314H105.694C105.694 29.4338 105.841 30.2814 106.158 30.6949C106.475 31.1083 107.15 31.3151 108.164 31.3151C109.199 31.3151 109.853 31.2117 110.17 31.0257C110.465 30.8396 110.634 30.4468 110.634 29.8473V29.5785H111.965C111.965 30.7156 111.648 31.5011 110.993 31.8939C110.487 32.204 109.536 32.3694 108.164 32.3694C106.686 32.3694 105.694 32.0593 105.145 31.4391C104.596 30.8189 104.342 29.6406 104.342 27.904C104.342 26.2502 104.638 25.0925 105.208 24.4516C105.778 23.8108 106.77 23.48 108.143 23.48C109.494 23.48 110.465 23.7694 111.057 24.3689C111.648 24.9684 111.943 26.0021 111.943 27.4906V28.1314H111.965ZM110.634 27.1391C110.634 26.1468 110.465 25.4646 110.106 25.0718C109.748 24.679 109.093 24.493 108.164 24.493C107.214 24.493 106.58 24.679 106.221 25.0718C105.863 25.4646 105.694 26.1468 105.694 27.1391H110.634Z" fill="white"/>
<path d="M12.3059 12.8407H32.7789L32.702 16.3776L32.702 16.3777C32.4522 28.0543 24.2773 34.6334 16.0873 36.202C15.4493 36.0716 14.8014 35.8209 14.1393 35.5269C13.8745 35.4093 13.6011 35.2817 13.3256 35.1531C12.9854 34.9943 12.6422 34.8341 12.3086 34.6897L12.3073 30.1028L12.3063 26.794L12.306 25.704L12.306 25.6528H29.1067H29.4687V25.2907V17.9137V17.5517H29.1067H12.3059V12.8407Z" stroke="white" stroke-width="0.724071"/>
<path d="M33.1652 12.5513L33.3349 3.41293C27.8427 3.03375 22.2657 2.8252 16.6674 2.8252C11.048 2.8252 5.49219 3.01479 0 3.41293L0.106027 10.5605L0.254465 16.4189C0.254465 16.4189 0.31808 21.8602 2.3538 25.7469C5.72545 32.8376 12.5536 35.1696 12.5536 35.1696L12.5324 25.2539H29.6451V16.7792H12.5112V12.5513H33.1652Z" fill="white"/>
</svg>
