<svg width="209" height="25" viewBox="0 0 209 25" fill="none" xmlns="http://www.w3.org/2000/svg">
<g clip-path="url(#clip0_1188_1319)">
<path d="M52.0966 1.47559H47.5298V22.632H52.0966V1.47559Z" fill="white"/>
<path d="M63.0496 12.786C60.9304 12.4382 59.6375 12.1674 59.6375 11.2073C59.6375 10.3274 60.7499 9.81582 62.6114 9.81582C64.144 9.78321 65.6555 10.1708 66.9771 10.9354L67.3033 11.1227L69.043 7.72972L68.7603 7.56274C66.8694 6.60508 64.7657 6.12683 62.6397 6.1713C58.1816 6.1713 55.311 8.22208 55.311 11.386C55.311 15.3634 59.0797 15.9403 61.8351 16.361C63.8727 16.6735 65.1123 16.9272 65.1123 17.7867C65.1123 18.1345 65.1123 19.1781 62.1384 19.1781C60.2543 19.1566 58.412 18.6289 56.8105 17.6518L56.4843 17.4377L54.7456 20.8457L54.9924 21.0191C57.0802 22.2484 59.4755 22.8786 61.9079 22.8387C66.4998 22.8387 69.4453 20.805 69.4453 17.6657C69.4345 13.8296 65.8963 13.2452 63.0496 12.786Z" fill="white"/>
<path d="M83.5545 6.32533L76.3531 12.893V1.2915H71.9385V22.632H76.3531V18.31L89.0217 6.32212L83.5545 6.32533Z" fill="white"/>
<path d="M83.3466 14.9795L80.2847 17.7924L84.0904 22.6325H89.5053L83.3466 14.9795Z" fill="white"/>
<path d="M97.4113 6.15171C96.2845 6.10828 95.1606 6.29329 94.1095 6.69526C93.0583 7.09724 92.1023 7.7076 91.3008 8.48846C90.4992 9.26933 89.8693 10.204 89.4501 11.2345C89.0309 12.265 88.8313 13.3694 88.8638 14.479C88.8638 19.4026 92.6107 22.8277 97.9757 22.8277C99.2173 22.8977 100.459 22.6938 101.61 22.2309C102.762 21.7679 103.793 21.0576 104.63 20.1518L104.825 19.926L102.384 17.1656L102.118 17.4363C101.595 17.9689 100.963 18.3871 100.265 18.6637C99.566 18.9403 98.8162 19.0691 98.0637 19.0419C97.0477 19.1282 96.0319 18.8739 95.1812 18.3204C94.3304 17.7668 93.6947 16.9464 93.3773 15.9925H105.694L105.722 15.6714C105.739 15.4573 105.782 14.9221 105.782 14.5593C105.782 9.61106 102.347 6.15171 97.4113 6.15171ZM97.4113 9.76733C98.3545 9.71868 99.2841 10.0054 100.03 10.5752C100.777 11.145 101.29 11.96 101.477 12.8713H93.3284C93.5306 11.9647 94.0505 11.157 94.7971 10.5899C95.5436 10.0227 96.4691 9.73229 97.4113 9.76947V9.76733Z" fill="white"/>
<path d="M117.815 6.1515C116.853 6.08307 115.888 6.20807 114.977 6.51888C114.066 6.82968 113.229 7.31978 112.517 7.95931V6.32489H108.276V22.6316H112.702V14.711C112.702 11.8211 114.21 10.237 116.942 10.237C117.211 10.2396 117.478 10.2675 117.741 10.3205L118.157 10.3933V6.1515H117.815Z" fill="white"/>
<path d="M130.996 5.21006C132.042 5.19399 133.079 5.39991 134.038 5.81382C134.996 6.22772 135.852 6.8399 136.548 7.6087L139.049 5.29676C138.016 4.16733 136.743 3.27563 135.32 2.68498C133.898 2.09433 132.36 1.81921 130.818 1.87915C124.432 1.87915 119.681 6.29111 119.681 12.3996C119.681 18.508 124.432 22.9232 130.785 22.9232C132.332 22.9833 133.874 22.7076 135.301 22.1157C136.728 21.5238 138.005 20.6301 139.042 19.4981L136.541 17.1615C135.851 17.9396 134.997 18.5604 134.038 18.9807C133.079 19.401 132.039 19.6108 130.989 19.5955C130.013 19.6399 129.037 19.4851 128.124 19.1407C127.211 18.7963 126.38 18.2699 125.684 17.5943C124.987 16.9188 124.44 16.1088 124.077 15.2152C123.714 14.3216 123.542 13.3637 123.573 12.4017C123.543 11.4394 123.715 10.4814 124.079 9.58786C124.443 8.69429 124.991 7.88444 125.688 7.20913C126.385 6.53383 127.216 6.00766 128.13 5.66364C129.043 5.31963 130.019 5.16521 130.996 5.21006Z" fill="white"/>
<path d="M144.87 9.30945V7.02105H141.338V22.632H145.05V15.0593C145.05 11.8751 146.816 10.2374 149.642 10.2374C149.931 10.2416 150.22 10.2707 150.504 10.3241V6.84766C147.872 6.84766 145.937 7.66433 144.87 9.30945Z" fill="white"/>
<path d="M159.693 6.84797C158.613 6.80554 157.536 6.98224 156.528 7.3671C155.52 7.75195 154.603 8.33672 153.835 9.08508C153.066 9.83343 152.462 10.7294 152.06 11.7172C151.659 12.7051 151.468 13.7637 151.499 14.8274C151.499 19.4759 154.943 22.8239 160.259 22.8239C161.448 22.8908 162.638 22.6972 163.742 22.2571C164.846 21.8169 165.837 21.1412 166.644 20.2786L164.652 18.0309C164.098 18.5985 163.429 19.0445 162.688 19.3396C161.946 19.6348 161.15 19.7724 160.351 19.7435C157.589 19.7435 155.66 18.2792 155.215 15.9973H167.657C167.688 15.6494 167.717 15.2116 167.717 14.9162C167.71 10.0376 164.327 6.84797 159.693 6.84797ZM155.18 13.5697C155.31 12.4943 155.847 11.5066 156.683 10.8027C157.519 10.0987 158.594 9.73011 159.693 9.77001C160.792 9.72154 161.868 10.0878 162.701 10.7941C163.535 11.5003 164.063 12.4931 164.177 13.5697H155.18Z" fill="white"/>
<path d="M182.738 8.96187C182.096 8.26432 181.304 7.71549 180.421 7.35481C179.537 6.99412 178.583 6.83053 177.628 6.87577C176.555 6.83051 175.485 7.00661 174.485 7.39277C173.486 7.77893 172.579 8.3666 171.824 9.11804C171.069 9.86948 170.482 10.7681 170.101 11.7561C169.719 12.7441 169.552 13.7998 169.61 14.8552C169.551 15.9117 169.717 16.9686 170.098 17.9581C170.479 18.9476 171.065 19.8477 171.82 20.6008C172.575 21.3538 173.482 21.9431 174.482 22.3307C175.482 22.7184 176.554 22.8959 177.628 22.8517C178.617 22.8971 179.605 22.7207 180.515 22.3358C181.425 21.9509 182.235 21.3675 182.883 20.6297V22.6462H186.446V1.63965H182.738V8.96187ZM178.076 19.7188C177.432 19.7331 176.793 19.6152 176.199 19.3727C175.605 19.1302 175.068 18.7684 174.624 18.3103C174.179 17.8523 173.837 17.308 173.618 16.7124C173.399 16.1168 173.309 15.4828 173.353 14.8509C173.323 14.2217 173.422 13.5929 173.646 13.0026C173.869 12.4123 174.212 11.8729 174.653 11.4169C175.095 10.9609 175.626 10.5979 176.214 10.3498C176.802 10.1018 177.436 9.97393 178.076 9.97393C178.716 9.97393 179.349 10.1018 179.937 10.3498C180.525 10.5979 181.056 10.9609 181.498 11.4169C181.939 11.8729 182.282 12.4123 182.506 13.0026C182.729 13.5929 182.829 14.2217 182.798 14.8509C182.842 15.4821 182.751 16.1154 182.532 16.7102C182.313 17.305 181.97 17.8483 181.526 18.3054C181.081 18.7624 180.545 19.1233 179.951 19.3648C179.357 19.6063 178.718 19.7233 178.076 19.7081V19.7188Z" fill="white"/>
<path d="M193.97 7.64404H190.258V22.6321H193.97V7.64404Z" fill="white"/>
<path d="M193.97 1.68408H190.258V5.01178H193.97V1.68408Z" fill="white"/>
<path d="M208.031 18.8112C207.189 19.3451 206.239 19.6914 205.247 19.8259C203.834 19.8259 203.051 19.005 203.051 17.4862V10.0633H207.291V7.14021H203.051V3.57275H199.346V7.14021H196.729V10.0644H199.339V17.5739C199.339 21.0269 201.327 22.8379 204.802 22.8379C205.934 22.8608 207.049 22.5768 208.028 22.0169L208.031 18.8112Z" fill="white"/>
<path d="M21.1565 8.61362L29.7671 8.57937L34.0306 12.7066L22.7342 24.0052L28.6994 23.9602L39.999 12.6606L31.4906 4.41895L19.383 4.4639L11.5542 12.2935L17.3465 12.4219L21.1565 8.61362Z" fill="white"/>
<path d="M13.4209 4.46293L17.2636 0.617188L11.2985 0.665353L7.50146 4.46293H13.4209Z" fill="white"/>
<path d="M22.6504 12.2015L18.8447 16.012L10.234 16.0462L5.96949 11.9168L9.44898 8.39111H3.52515L0 11.9661L8.50843 20.2077L20.616 20.1628L28.4448 12.3332L22.6504 12.2015Z" fill="white"/>
</g>
<defs>
<clipPath id="clip0_1188_1319">
<rect width="208.031" height="23.3881" fill="white" transform="translate(0 0.617188)"/>
</clipPath>
</defs>
</svg>
