<svg width="36" height="36" viewBox="0 0 36 36" fill="none" xmlns="http://www.w3.org/2000/svg">
<path d="M17.738 22.6487V25.6051M8.86895 31.5178H26.607C27.3911 31.5178 28.1431 31.2063 28.6975 30.6519C29.2519 30.0975 29.5634 29.3455 29.5634 28.5614V19.6924C29.5634 18.9083 29.2519 18.1564 28.6975 17.6019C28.1431 17.0475 27.3911 16.736 26.607 16.736H8.86895C8.08487 16.736 7.33292 17.0475 6.77849 17.6019C6.22407 18.1564 5.9126 18.9083 5.9126 19.6924V28.5614C5.9126 29.3455 6.22407 30.0975 6.77849 30.6519C7.33292 31.2063 8.08487 31.5178 8.86895 31.5178ZM23.6507 16.736V10.8233C23.6507 9.2552 23.0278 7.75128 21.9189 6.64243C20.8101 5.53359 19.3061 4.91064 17.738 4.91064C16.1698 4.91064 14.6659 5.53359 13.5571 6.64243C12.4482 7.75128 11.8253 9.2552 11.8253 10.8233V16.736H23.6507Z" stroke="white" stroke-width="2.36508" stroke-linecap="round" stroke-linejoin="round"/>
</svg>
