<svg width="36" height="36" viewBox="0 0 36 36" fill="none" xmlns="http://www.w3.org/2000/svg">
<path d="M20.6945 15.21H27.7365C28.2404 15.21 28.7359 15.3388 29.176 15.5842C29.6161 15.8295 29.9861 16.1833 30.2511 16.6119C30.516 17.0404 30.667 17.5296 30.6898 18.033C30.7125 18.5363 30.6062 19.0371 30.381 19.4879L25.2074 29.8351C24.9618 30.3265 24.5841 30.7398 24.1168 31.0286C23.6494 31.3174 23.1108 31.4702 22.5614 31.4699H16.6236C16.3827 31.4699 16.1417 31.4404 15.9067 31.3812L10.3473 29.9918M20.6945 15.21V7.81914C20.6945 7.03507 20.383 6.28311 19.8286 5.72869C19.2742 5.17426 18.5222 4.86279 17.7381 4.86279H17.5977C16.8586 4.86279 16.26 5.46145 16.26 6.20054C16.26 7.25596 15.9481 8.28772 15.3612 9.16576L10.3473 16.6882V29.9918M20.6945 15.21H17.7381M10.3473 29.9918H7.39092C6.60685 29.9918 5.85489 29.6803 5.30046 29.1259C4.74604 28.5714 4.43457 27.8195 4.43457 27.0354V18.1664C4.43457 17.3823 4.74604 16.6303 5.30046 16.0759C5.85489 15.5215 6.60685 15.21 7.39092 15.21H11.0864" stroke="white" stroke-width="2.36508" stroke-linecap="round" stroke-linejoin="round"/>
</svg>
