<svg width="17" height="17" viewBox="0 0 17 17" fill="none" xmlns="http://www.w3.org/2000/svg">
<path d="M0.707107 15.5563C0.316583 15.1658 0.316583 14.5327 0.707107 14.1421L14.1421 0.707108C14.5327 0.316584 15.1658 0.316584 15.5563 0.707108C15.9469 1.09763 15.9469 1.7308 15.5563 2.12132L2.12132 15.5563C1.7308 15.9469 1.09763 15.9469 0.707107 15.5563Z" fill="white"/>
<path d="M16.1876 15.688C15.7971 16.0786 15.1639 16.0786 14.7734 15.688L1.33833 2.25301C0.947809 1.86248 0.947809 1.22932 1.33833 0.838793C1.72886 0.448268 2.36202 0.448269 2.75255 0.838793L16.1876 14.2738C16.5781 14.6643 16.5781 15.2975 16.1876 15.688Z" fill="white"/>
</svg>
