<svg width="238" height="66" viewBox="0 0 238 66" fill="none" xmlns="http://www.w3.org/2000/svg">
<path fill-rule="evenodd" clip-rule="evenodd" d="M0.0525681 21.2109L0.10533 42.4216L0.637024 43.563C2.14617 46.8039 4.8995 48.8923 8.14961 49.2621L9.27332 49.39L9.50493 50.8332C9.99085 53.8617 11.9091 56.4835 14.6265 57.8335C16.6253 58.8265 17.8503 58.9578 24.1489 58.8531C29.3431 58.7669 29.6674 58.7392 31.2947 58.2454C35.1764 57.0674 38.1629 54.9846 40.4565 51.8555C44.7754 45.9631 44.8577 38.0283 40.6611 32.1159C39.7929 30.8927 37.7278 28.7999 36.7594 28.162C36.497 27.989 36.2823 27.7628 36.2823 27.6592C36.2823 27.5557 36.587 27.0094 36.9594 26.4452C39.1429 23.1381 40.1038 18.9915 39.6125 14.9956C38.7462 7.94711 33.5807 2.35761 26.1954 0.477022C25.17 0.215888 23.5098 0.137685 17.3038 0.0583112C12.8994 0.00214519 9.5994 0.034909 9.49853 0.13632C9.22929 0.407009 9.68999 2.68232 10.2816 4.00242C10.8938 5.36834 12.4276 7.12919 13.7346 7.96641C15.5784 9.14746 16.803 9.42069 20.861 9.55662C25.4338 9.7099 26.2423 9.9607 28.0498 11.7861C29.95 13.7053 30.6755 15.7942 30.2951 18.2508C29.9019 20.7904 28.2909 22.8912 25.8424 24.0574L24.5466 24.6746L16.9399 24.7374L9.33326 24.8002L9.27778 15.1814C9.22424 5.8832 9.20873 5.53314 8.81495 4.67777C7.74012 2.34259 4.62716 0.499254 1.11945 0.120913L0 0L0.0525681 21.2109ZM96.4155 41.0392C96.4155 56.0549 96.4339 56.9126 96.755 56.8508C96.9416 56.8149 98.6437 56.7788 100.538 56.7706L103.981 56.7556V52.3583V47.9611L105.19 48.019L106.398 48.0772L108.73 52.4125L111.061 56.748L115.384 56.7517C119.474 56.7554 119.697 56.7369 119.521 56.4075C119.419 56.216 118.574 54.8337 117.644 53.3359C114.46 48.2137 112.322 44.643 112.322 44.4511C112.322 44.3454 113.356 42.6608 114.621 40.7075C117.798 35.801 118.723 34.3399 118.723 34.2287C118.723 34.1761 116.897 34.1332 114.665 34.1332H110.606L108.461 37.6923C107.281 39.6497 106.291 41.322 106.26 41.4082C106.229 41.4946 105.704 41.5974 105.093 41.6368L103.981 41.7086V33.4354V25.1622H100.198H96.4155V41.0392ZM10.4011 28.9524C11.5729 31.3442 14.3117 33.4533 16.8844 33.945C17.4712 34.0571 19.9154 34.1439 22.3158 34.1378C24.7262 34.1318 27.1975 34.2233 27.8351 34.3422C30.3739 34.8157 32.5563 36.4859 33.6209 38.7698C34.144 39.8921 34.2331 40.3064 34.2383 41.6415C34.2459 43.5864 33.973 44.5085 32.9315 46.0564C32.0233 47.4063 30.8336 48.3243 29.1927 48.9415C28.1631 49.3288 27.7484 49.3448 18.7199 49.3448H9.31929L9.33908 37.4973C9.35576 27.6614 9.39941 25.8319 9.59668 26.7224C9.72723 27.3123 10.0894 28.3159 10.4011 28.9524ZM76.3388 33.8537C71.7661 34.866 68.0856 38.2516 67.0305 42.4165C66.7244 43.6252 66.6088 46.8634 66.8354 47.8831C67.6803 51.6843 69.8917 54.4485 73.3862 56.0717C78.4101 58.4053 84.8063 57.5497 88.6915 54.0243C91.0342 51.8986 92.1026 49.6067 92.2811 46.3245C92.3965 44.2046 92.2106 42.8329 91.5781 41.1334C90.4055 37.9829 87.4956 35.3661 83.8608 34.1936C81.9021 33.5617 78.3775 33.4024 76.3388 33.8537ZM129.101 33.8233C124.158 34.9682 120.993 38.5114 120.281 43.6991C120.032 45.5083 120.232 47.8416 120.766 49.3633C121.688 51.9908 123.989 54.7625 126.221 55.9361C129.567 57.6948 134.438 57.8189 138.548 56.2499C139.938 55.7193 142.194 54.352 142.194 54.0403C142.194 53.8586 140.282 50.088 139.742 49.2048L139.478 48.772L138.363 49.4482C134.348 51.8826 129.971 51.3906 128.404 48.3287C127.682 46.9174 127.24 47.0045 135.11 47.0045H142.187L142.312 46.5053C142.38 46.2307 142.396 45.0239 142.346 43.8238C142.237 41.1602 141.689 39.4196 140.378 37.5724C139.092 35.761 137.645 34.7186 135.428 34.0062C134.147 33.5945 130.539 33.4902 129.101 33.8233ZM172.164 33.6723C169.88 34.0351 165.712 35.6149 165.107 36.3476C164.918 36.5772 165.121 37.1302 166.174 39.2548L167.474 41.8786L168.379 41.3136C170.596 39.9278 174.096 39.3502 175.683 40.1076C176.441 40.4692 176.916 41.2446 176.916 42.1193V42.7141L175.413 42.7143C171.339 42.7151 166.775 44.2413 165.09 46.1663C163.829 47.6062 163.629 48.2024 163.629 50.5149C163.629 52.2801 163.691 52.6838 164.082 53.4402C165.373 55.9412 167.786 57.3407 170.806 57.3407C173.136 57.3407 175.119 56.5557 176.856 54.946L177.692 54.1706V55.4632V56.7556H181.098H184.504L184.445 48.4184L184.385 40.0813L183.774 38.7825C182.196 35.4234 179.384 33.7827 174.977 33.6481C173.75 33.6107 172.484 33.6216 172.164 33.6723ZM196.508 33.6739C191.347 34.72 188.361 38.7838 188.361 44.7618C188.361 48.4259 189.411 51.1936 191.654 53.4418C193.706 55.4989 195.872 56.2948 198.933 56.1169C201.025 55.9952 202.272 55.5584 203.42 54.545L204.267 53.7971L204.266 55.0326C204.265 56.748 203.973 57.6365 203.135 58.4794C201.523 60.0998 197.802 60.2978 194.11 58.9593C193.378 58.6939 192.709 58.5502 192.623 58.6401C192.307 58.9695 190.488 64.0418 190.634 64.1822C190.897 64.434 193.217 65.3192 194.549 65.6761C195.552 65.945 196.543 66.0144 199.127 65.9977C202.087 65.9785 202.577 65.9265 203.91 65.4881C207.15 64.4234 209.503 62.5785 210.675 60.1852C211.79 57.908 211.818 57.5431 211.826 45.2981L211.833 34.1332H208.341H204.849V34.9132C204.849 35.3423 204.805 35.6933 204.751 35.6933C204.696 35.6933 204.294 35.433 203.857 35.1145C202.511 34.1339 201.099 33.7111 198.933 33.6396C197.866 33.6045 196.775 33.6199 196.508 33.6739ZM224.538 33.8578C222.361 34.3442 220.851 35.1917 219.197 36.8557C216.745 39.3229 215.841 41.637 215.843 45.4444C215.844 47.3714 215.919 47.9067 216.372 49.2473C218.11 54.3832 222.377 57.3407 228.048 57.3407C231.248 57.3407 234.58 56.4126 236.807 54.9011C237.801 54.2268 238 53.9048 237.657 53.528C237.564 53.4262 237.109 52.5968 236.646 51.6851C236.182 50.7733 235.638 49.7409 235.436 49.3906L235.068 48.7539L234.459 49.1275C232.112 50.5664 230.819 50.9902 228.806 50.9799C227.528 50.9732 227.082 50.8829 226.284 50.4689C225.089 49.8497 224.389 49.1244 223.88 47.9797L223.49 47.1021L230.646 47.051L237.803 46.9999L237.938 46.0909C238.013 45.591 238.021 44.3762 237.957 43.3914C237.661 38.8575 235.19 35.4283 231.249 34.0795C229.746 33.5653 226.35 33.4529 224.538 33.8578ZM61.4387 34.1281C59.992 34.6964 58.4516 35.9794 57.6047 37.3216C57.1883 37.9813 56.8469 38.6257 56.8459 38.7534C56.8447 38.8811 56.771 39.0309 56.682 39.0863C56.5929 39.1417 56.5607 38.05 56.6108 36.66L56.7014 34.1332H52.9902H49.2788V45.4444V56.7556H53.0614H56.844L56.8469 51.9288C56.85 46.6752 57.0333 45.2745 57.9165 43.7596C58.8933 42.0834 60.8416 41.1539 63.3775 41.1539H64.7971V37.4485V33.7431L63.5847 33.7523C62.879 33.7576 61.9822 33.9145 61.4387 34.1281ZM158.973 34.0144C157.28 34.5499 155.249 36.3568 154.347 38.1311L153.851 39.1062L153.842 36.6197L153.833 34.1332H150.244H146.656V45.4444V56.7556H150.428H154.199L154.259 51.1487C154.318 45.5581 154.32 45.5388 154.827 44.4693C155.895 42.216 157.354 41.324 160.186 41.1914L161.98 41.1073V37.4253V33.7431L160.865 33.7562C160.251 33.7634 159.4 33.8796 158.973 34.0144ZM133.312 39.4208C133.948 39.7628 134.605 40.6024 134.847 41.3831C135.258 42.7065 135.239 42.7141 131.431 42.7141H128.027L128.151 42.1778C128.372 41.2265 129.084 40.108 129.76 39.6501C130.277 39.3 130.688 39.2037 131.664 39.2037C132.349 39.2037 133.09 39.3014 133.312 39.4208ZM228.897 39.4933C229.203 39.6526 229.626 40.0255 229.835 40.3222C230.302 40.9819 230.653 42.1955 230.466 42.5C230.369 42.6577 229.359 42.708 227.045 42.6702L223.762 42.6166L223.827 42.129C223.93 41.3446 224.77 40.0559 225.456 39.6298C226.239 39.1434 228.083 39.0701 228.897 39.4933ZM80.5442 40.0095C83.1788 40.5776 84.6509 42.5661 84.6401 45.5419C84.6335 47.3482 84.3328 48.1944 83.2822 49.3633C82.1913 50.5773 81.2602 50.9812 79.5394 50.9865C77.3061 50.9931 75.8686 50.0874 74.767 47.9797C74.2888 47.0644 74.2805 44.1194 74.7532 43.0626C75.5898 41.1921 77.0311 40.18 79.3844 39.8102C79.4591 39.7983 79.9811 39.888 80.5442 40.0095ZM202.131 40.3097C203.122 40.7169 203.633 41.2836 204.071 42.4609C204.51 43.6406 204.586 45.5538 204.247 46.9068C203.413 50.2392 198.736 50.9623 196.895 48.0436C195.407 45.6854 195.722 42.0738 197.537 40.6822C198.693 39.7962 200.52 39.648 202.131 40.3097ZM177.02 47.9309C176.631 50.6159 173.92 52.4569 171.901 51.4072C170.547 50.7031 170.644 48.7584 172.076 47.9081C172.838 47.4552 174.683 47.0398 176.017 47.0207L177.154 47.0045L177.02 47.9309Z" fill="url(#paint0_linear_1170_1342)"/>
<defs>
<linearGradient id="paint0_linear_1170_1342" x1="28.8839" y1="80.7788" x2="80.0505" y2="-77.3726" gradientUnits="userSpaceOnUse">
<stop stop-color="#0C1932"/>
<stop offset="1" stop-color="#566B94"/>
</linearGradient>
</defs>
</svg>
